Coordinates
version=1
nRows=16
nColumns=40
inDegrees=yes

Units are S.I. units (second, meters, Newtons, ...)
Angles are in degrees.

endheader
time	pelvis_tilt	pelvis_list	pelvis_rotation	pelvis_tx	pelvis_ty	pelvis_tz	hip_flexion_r	hip_adduction_r	hip_rotation_r	knee_angle_r	knee_angle_r_beta	ankle_angle_r	subtalar_angle_r	mtp_angle_r	hip_flexion_l	hip_adduction_l	hip_rotation_l	knee_angle_l	knee_angle_l_beta	ankle_angle_l	subtalar_angle_l	mtp_angle_l	lumbar_extension	lumbar_bending	lumbar_rotation	arm_flex_r	arm_add_r	arm_rot_r	elbow_flex_r	pro_sup_r	wrist_flex_r	wrist_dev_r	arm_flex_l	arm_add_l	arm_rot_l	elbow_flex_l	pro_sup_l	wrist_flex_l	wrist_dev_l
     28.83414286	     -5.27278797	     -5.00315312	     -1.16766969	      1.02380742	      0.93558511	      0.39394580	     38.79368468	     -3.40637767	     -5.76735210	     55.70651239	     55.70651239	      0.75692065	    -16.79829521	      4.58611199	     12.39316431	     -4.49238272	     -7.22361002	     18.48982794	     18.48982794	     13.11352139	    -10.97495872	      1.25930869	    -12.66800742	      6.57183351	      3.17706121	      5.88600047	    -13.21609623	     -2.26821766	     25.35546217	     46.89033919	      0.00000000	      0.00000000	     12.67805682	    -15.00009833	     -8.32043089	     66.11920960	     47.31163345	      0.00000000	      0.00000000
     28.84578571	     -5.42423766	     -5.10236017	     -1.23086708	      1.02271117	      0.93536688	      0.39423952	     38.93756303	     -3.23712394	     -6.18279345	     52.32558168	     52.32558168	     -0.12186912	    -16.33479417	      1.65519922	     12.00661623	     -4.64404793	     -7.43733630	     18.26876031	     18.26876031	     13.34946320	    -10.59533970	      0.82765138	    -12.67539454	      6.74493954	      2.24134800	      5.20991797	    -13.06542063	     -2.95098431	     23.56417789	     47.00682726	      0.00000000	      0.00000000	     11.93543624	    -15.72574336	     -9.81104870	     69.81530513	     47.48724239	      0.00000000	      0.00000000
     28.85742857	     -5.58729445	     -5.19531252	     -1.27608713	      1.02159112	      0.93503073	      0.39463472	     39.03287874	     -3.00914251	     -6.51302152	     48.91908066	     48.91908066	      0.03175953	    -15.24313132	      1.47781816	     11.62003320	     -4.76475637	     -7.52106016	     18.00879725	     18.00879725	     13.60766494	    -10.38912662	      0.67823402	    -12.62246306	      6.91930019	      2.44441365	      3.43481594	    -13.35826797	     -3.05318973	     22.67839326	     47.03559064	      0.00000000	      0.00000000	     12.81846811	    -15.76573715	    -10.26983441	     71.33738303	     47.55419056	      0.00000000	      0.00000000
     28.86907143	     -5.89875188	     -5.22855710	     -1.28929307	      1.02037889	      0.93434649	      0.39521900	     39.16399687	     -2.80122677	     -6.81903812	     45.35337575	     45.35337575	      0.17588803	    -14.14661716	      1.64008235	     11.44826777	     -4.83484640	     -7.56146973	     17.82384965	     17.82384965	     13.85119855	    -10.23880786	      0.51549978	    -12.35374206	      7.01525537	      2.20609153	      1.85854300	    -13.45350986	     -3.12176397	     22.11949227	     47.04946547	      0.00000000	      0.00000000	     13.50773991	    -16.32139763	    -10.65071887	     72.34389527	     47.60414758	      0.00000000	      0.00000000
     28.88071429	     -5.97157607	     -5.33514967	     -1.27045522	      1.01956817	      0.93380700	      0.39582204	     38.74457109	     -2.61907979	     -7.42294019	     41.48686891	     41.48686891	      0.10829046	    -12.55674009	      0.47621390	     10.99690435	     -5.06756141	     -7.98089731	     17.68390260	     17.68390260	     14.23167954	     -9.38393433	     -0.16418260	    -12.46760298	      7.12661943	      2.24070315	     -0.06707231	    -13.70523362	     -3.66682577	     22.28224744	     47.06567034	      0.00000000	      0.00000000	     13.40424820	    -16.32430639	    -11.45530093	     76.34732852	     47.73807966	      0.00000000	      0.00000000
     28.89235714	     -6.10655273	     -5.36589515	     -1.22723465	      1.01889548	      0.93309771	      0.39656654	     38.25484241	     -2.43035498	     -7.94924836	     37.56393200	     37.56393200	      0.13716424	    -10.99442317	     -0.01854682	     10.58011006	     -5.16913335	     -8.14928936	     17.47465197	     17.47465197	     14.50350703	     -8.94904886	     -0.68437907	    -12.39434780	      7.18127686	      1.95645451	     -1.73468954	    -13.82522824	     -4.13784906	     22.48219474	     47.07209281	      0.00000000	      0.00000000	     13.51928651	    -16.64689732	    -12.26890470	     78.80058903	     47.85011322	      0.00000000	      0.00000000
     28.90400000	     -6.19806661	     -5.35859468	     -1.16819939	      1.01847388	      0.93242664	      0.39740879	     37.58812113	     -2.23403675	     -8.44175805	     33.68175540	     33.68175540	      0.25130812	     -9.35393972	      0.47065523	     10.06310525	     -5.20830678	     -8.23194925	     17.18988406	     17.18988406	     14.79841727	     -8.68134235	     -0.94200832	    -12.24193986	      7.19866437	      1.84653434	     -3.35231286	    -13.95124360	     -4.26356117	     22.11860451	     47.07985987	      0.00000000	      0.00000000	     14.09211976	    -16.89551329	    -12.59890887	     80.12625113	     47.90306433	      0.00000000	      0.00000000
     28.91564286	     -6.21617232	     -5.16971642	     -1.16956325	      1.01850527	      0.93157118	      0.39840147	     36.81409460	     -2.23723625	     -9.06354113	     30.13790339	     30.13790339	      0.78402600	     -7.18793122	      1.34084024	      9.33610851	     -5.10036703	     -8.68720000	     16.75879182	     16.75879182	     15.05954094	     -7.90247244	     -1.72243800	    -12.22717995	      6.93948267	      1.74004586	     -5.30375198	    -14.00817623	     -4.82844029	     22.94947054	     47.05856537	      0.00000000	      0.00000000	     14.08404459	    -17.16174451	    -13.19850165	     83.13151373	     48.01076510	      0.00000000	      0.00000000
     28.92728571	     -6.22296629	     -4.98080838	     -1.14169844	      1.01880608	      0.93073025	      0.39946991	     35.90691583	     -2.13561977	     -9.46872864	     26.72176318	     26.72176318	      0.86007941	     -5.69725863	      2.24093460	      8.57852599	     -4.93698378	     -8.83368265	     16.30829260	     16.30829260	     15.36177480	     -7.55629001	     -2.00285730	    -12.06105671	      6.73524666	      1.62839464	     -6.87490330	    -14.01684710	     -4.96743076	     22.75542806	     47.05872585	      0.00000000	      0.00000000	     14.56553689	    -17.41551844	    -13.49886168	     84.39042529	     48.05968112	      0.00000000	      0.00000000
     28.93892857	     -6.04690060	     -4.59792504	     -1.16256803	      1.01959346	      0.92986445	      0.40064153	     34.95188505	     -2.34418000	    -10.21581321	     24.10458956	     24.10458956	      1.53078316	     -3.53531141	      3.97828874	      7.42729751	     -4.58748446	     -9.34570236	     15.57902170	     15.57902170	     15.56634842	     -6.72228823	     -2.79694467	    -12.15749826	      6.21689599	      1.65106560	     -8.82357247	    -13.98197215	     -5.49659160	     23.68722323	     47.02759908	      0.00000000	      0.00000000	     14.62624382	    -17.60045716	    -13.92194918	     87.19338646	     48.14984546	      0.00000000	      0.00000000
     28.95057143	     -5.92629318	     -4.35333762	     -1.13497431	      1.02064856	      0.92891580	      0.40197628	     33.91103636	     -2.30901445	    -10.76389328	     21.66583830	     21.66583830	      1.72491492	     -2.39844543	      5.22725630	      6.37855026	     -4.36316546	     -9.55409106	     14.94107095	     14.94107095	     15.85204067	     -6.26062812	     -3.20196686	    -12.03115764	      5.92584930	      1.58095343	    -10.39570167	    -13.96069881	     -5.73987186	     23.85748667	     47.01651153	      0.00000000	      0.00000000	     14.84808909	    -17.75332872	    -14.17773903	     88.64627110	     48.20004895	      0.00000000	      0.00000000
     28.96221429	     -5.85688394	     -3.97156055	     -1.12511862	      1.02183221	      0.92757451	      0.40342586	     33.22962034	     -2.52991965	    -11.49589955	     20.30667802	     20.30667802	      2.63691488	     -1.09501642	      8.08575501	      5.35394084	     -4.01251339	     -9.92161040	     14.23809815	     14.23809815	     15.84158992	     -5.67082602	     -4.46825856	    -11.90700891	      5.43061741	      1.37050245	    -12.40955234	    -13.86401152	     -6.64285397	     25.86547003	     46.94645716	      0.00000000	      0.00000000	     14.49852758	    -18.11053255	    -14.67158604	     91.29503246	     48.30552875	      0.00000000	      0.00000000
     28.97385714	     -5.72326925	     -3.64332244	     -1.10530926	      1.02336936	      0.92636014	      0.40505397	     32.25208294	     -2.60093913	    -12.00435251	     18.94050427	     18.94050427	      2.65924020	     -0.57445777	      8.60789177	      4.21028803	     -3.69985250	    -10.12577492	     13.50956268	     13.50956268	     16.14351634	     -5.17154275	     -4.64276261	    -11.64011977	      4.99590092	      1.53150232	    -13.70109763	    -13.68557664	     -6.70703813	     25.63065672	     46.94218498	      0.00000000	      0.00000000	     14.96072850	    -18.05984184	    -14.80284115	     92.43867895	     48.34339873	      0.00000000	      0.00000000
     28.98550000	     -5.73674210	     -3.29652440	     -1.03555978	      1.02479609	      0.92463402	      0.40675545	     31.68661087	     -2.77715382	    -12.50441252	     18.42006126	     18.42006126	      2.61755016	     -0.49924480	      8.81192381	      3.42341720	     -3.39503785	    -10.20231185	     13.13600681	     13.13600681	     16.59262560	     -4.84734896	     -4.89509798	    -11.27473084	      4.55742614	      1.47157985	    -14.86861927	    -13.44576245	     -6.76487000	     25.46058856	     46.93879320	      0.00000000	      0.00000000	     15.22839963	    -18.29419885	    -14.98122807	     93.28297842	     48.37541547	      0.00000000	      0.00000000
     28.99714286	     -5.54905520	     -3.05476791	     -1.00678430	      1.02664185	      0.92314989	      0.40859641	     30.80657237	     -2.88041433	    -13.15684879	     18.12176971	     18.12176971	      2.53068957	     -0.14650035	      8.36278809	      2.20392064	     -3.22913220	    -10.63836142	     12.41504513	     12.41504513	     16.87227836	     -3.93839558	     -5.63728783	    -11.18770921	      4.20954140	      1.43640538	    -16.36312693	    -13.28057719	     -7.37033141	     27.09558833	     46.86906777	      0.00000000	      0.00000000	     14.78912416	    -18.39217820	    -15.15804172	     96.12047244	     48.46182830	      0.00000000	      0.00000000
     29.00878571	     -5.59973490	     -2.88799197	     -0.85351653	      1.02821038	      0.92125440	      0.41048358	     30.28205971	     -2.93567897	    -13.57809969	     18.22121691	     18.22121691	      2.52443052	     -0.45987093	      8.32570195	      1.60984218	     -3.16823042	    -10.53855119	     12.32768060	     12.32768060	     17.34486799	     -3.85030253	     -5.81482415	    -10.68614275	      4.00081581	      1.28108060	    -17.13410102	    -13.10831773	     -7.37227729	     26.88005861	     46.86932130	      0.00000000	      0.00000000	     14.94785397	    -18.47495506	    -15.27689334	     96.46587288	     48.47827283	      0.00000000	      0.00000000
